<svg width="1797" height="450" viewBox="0 0 1797 450" fill="none" xmlns="http://www.w3.org/2000/svg">
<mask id="mask0_1_4981" style="mask-type:alpha" maskUnits="userSpaceOnUse" x="-123" y="0" width="1920" height="450">
<rect x="-123" width="1920" height="450" fill="#E3F1E9"/>
</mask>
<g mask="url(#mask0_1_4981)">
<path d="M695.233 193.895C688.991 191.135 681.247 186.25 681.123 176.619C681.045 170.083 683.983 164.083 685.375 157.964C688.052 146.193 684.433 133.241 678.406 123.972C672.222 114.446 663.198 107.679 653.603 105.58C648.89 104.54 644.025 104.668 639.418 106.176C634.792 107.684 630.377 110.539 626.297 113.609C617.219 120.465 609.172 129.685 602.698 140.222C596.34 150.577 591.218 162.625 589.361 175.688C588.511 181.719 588.347 188.036 589.238 194.119C590.316 201.431 593.201 208.188 596.966 213.885C604.672 225.534 616.126 233.377 627.698 236.814C639.242 240.217 651.068 236.55 659.363 225.909C663.695 220.352 666.569 213.499 669.358 206.613C670.774 203.128 672.456 199.409 675.595 198.149C678.687 196.902 681.884 198.179 684.762 199.762C687.238 201.145 689.594 202.863 692.07 204.222C692.51 204.469 692.928 204.302 693.194 203.795C694.373 201.469 695.785 199.372 696.512 196.715C696.85 195.447 695.228 194.963 694.89 196.232C694.232 198.673 692.807 200.663 691.726 202.809C692.107 202.666 692.469 202.525 692.85 202.382C688.233 199.856 683.657 195.596 678.449 195.568C671.971 195.544 669.34 202.022 666.781 208.426C664.047 215.239 660.759 221.784 656.148 226.828C651.745 231.64 646.276 234.777 640.466 235.681C628.567 237.547 615.78 230.979 606.277 222.043C601.418 217.472 597.11 211.839 594.17 205.132C591.422 198.857 590.235 191.988 590.309 184.878C590.437 171.822 594.538 159.295 600.047 148.527C605.822 137.253 613.435 127.358 622.09 119.589C629.839 112.644 638.81 106.598 648.627 107.017C658.406 107.436 667.966 113.285 674.833 122.09C681.496 130.651 686.193 143.486 684.108 155.547C683.046 161.715 680.348 167.269 679.6 173.557C678.795 180.417 681.418 186.612 685.891 190.567C688.615 192.974 691.709 194.563 694.825 195.925C695.892 196.39 696.243 194.338 695.233 193.895Z" fill="#D1D1D1"/>
<path d="M689.419 194.364C685.893 192.323 682.22 190.653 678.841 188.218C677.195 187.041 675.636 185.648 674.293 183.941C672.792 182.003 671.783 179.624 670.765 177.257C667.588 169.759 665.873 161.424 662.31 154.175C655.654 140.665 643.274 132.201 630.954 130.635C624.076 129.762 617.134 131.112 610.961 134.966C610.006 135.563 610.893 137.343 611.839 136.759C623 129.807 636.633 131.746 647.406 139.374C653.137 143.437 658.114 149.178 661.441 156.376C664.758 163.538 666.438 171.65 669.608 178.912C671.561 183.388 673.837 186.814 677.327 189.518C680.893 192.266 684.869 194.021 688.652 196.207C689.624 196.768 690.401 194.936 689.419 194.364Z" fill="#D1D1D1"/>
<path d="M670.55 188.384C651.458 184.482 631.117 183.908 613.518 172.457C608.411 169.137 603.754 164.891 599.752 159.691C599.01 158.72 597.884 160.234 598.626 161.205C613.091 179.948 634.317 184.329 653.848 187.567C659.304 188.474 664.766 189.298 670.199 190.407C671.237 190.635 671.597 188.6 670.55 188.384Z" fill="#D1D1D1"/>
<path d="M661.034 175.304C649.086 156.61 629.804 146.797 611.314 144.795C610.252 144.675 610.325 146.764 611.377 146.874C629.21 148.801 648.099 158.331 659.624 176.364C660.284 177.419 661.694 176.359 661.034 175.304Z" fill="#D1D1D1"/>
<path d="M644.733 170.63C637.043 169.213 629.838 164.931 623.359 159.573C622.465 158.832 621.696 160.678 622.59 161.419C629.175 166.856 636.552 171.227 644.373 172.664C645.419 172.856 645.798 170.821 644.733 170.63Z" fill="#D1D1D1"/>
<path d="M664.381 196.923C656.161 199.926 647.7 202.368 639.059 201.997C629.807 201.586 621.261 197.566 613.068 192.232C607.355 188.514 601.535 184.077 598.101 176.997C597.54 175.83 596.129 176.916 596.69 178.083C599.673 184.218 604.372 188.512 609.253 192.019C613.799 195.264 618.569 198.206 623.503 200.362C631.851 204.033 640.601 204.898 649.288 203.384C654.578 202.45 659.754 200.832 664.865 198.957C665.885 198.57 665.401 196.56 664.381 196.923Z" fill="#D1D1D1"/>
<path d="M661.702 205.231C655.779 213.593 647.97 219.513 639.138 221.459C629.093 223.656 618.871 220.643 610.634 212.864C605.665 208.159 601.422 202.354 596.911 196.983C596.132 196.059 594.995 197.564 595.784 198.499C604.172 208.49 612.115 219.846 623.864 223.048C632.887 225.505 642.308 224.122 650.487 218.913C655.221 215.898 659.401 211.655 662.929 206.686C663.631 205.669 662.413 204.225 661.702 205.231Z" fill="#D1D1D1"/>
<path d="M635.507 211.285C629.631 211.433 623.711 209.77 619.017 205.004C618.185 204.154 617.059 205.669 617.891 206.519C622.933 211.653 629.227 213.552 635.561 213.379C636.639 213.357 636.575 211.252 635.507 211.285Z" fill="#D1D1D1"/>
<path d="M650.415 193.709C643.247 193.518 636.183 191.806 629.219 189.665C628.177 189.342 627.817 191.379 628.859 191.702C635.956 193.887 643.17 195.617 650.469 195.805C651.549 195.831 651.486 193.747 650.415 193.709Z" fill="#D1D1D1"/>
<path d="M613.918 182.995C610.239 180.841 606.608 178.721 603.867 174.813C603.153 173.807 602.029 175.319 602.743 176.325C605.582 180.371 609.366 182.605 613.169 184.838C614.122 185.399 614.899 183.567 613.918 182.995Z" fill="#D1D1D1"/>
<path d="M611.751 158.973C608.303 157.116 605.028 154.829 601.57 152.985C600.589 152.46 599.821 154.305 600.802 154.831C604.251 156.687 607.525 158.974 610.983 160.818C611.973 161.331 612.742 159.51 611.751 158.973Z" fill="#D1D1D1"/>
<path d="M677.294 167.659C675.346 157.797 673.942 147.376 668.869 139.088C663.531 130.371 655.634 124.014 647.233 121.334C642.347 119.773 637.281 119.387 632.289 119.862C631.225 119.966 631.288 122.043 632.352 121.939C643.634 120.867 654.282 124.776 662.947 134.252C666.878 138.547 669.873 143.758 671.735 149.878C673.535 155.81 674.485 162.1 675.711 168.24C675.976 169.555 677.549 168.962 677.294 167.659Z" fill="#D1D1D1"/>
<path d="M677.714 139.674C675.536 134.82 673.366 129.884 670.431 125.656C667.438 121.335 663.679 118.265 659.353 116.547C658.34 116.142 657.981 118.171 658.994 118.576C663.187 120.251 666.732 123.339 669.583 127.582C672.276 131.57 674.27 136.229 676.307 140.756C676.838 141.932 678.236 140.861 677.714 139.674Z" fill="#D1D1D1"/>
<path d="M622.138 491.74C620.916 482.398 619.358 472.108 614.473 464.511C611.488 459.873 607.064 455.178 602.312 454.021C600.278 453.534 598.155 453.845 596.594 455.647C594.8 457.721 594.349 460.957 594.245 463.897C593.995 471.572 597.891 478.547 602.32 483.405C607.167 488.719 613.483 492.947 619.948 493.582C621.779 493.75 621.653 490.144 619.839 489.997C615.124 489.552 610.43 486.578 606.609 483.149C602.473 479.424 598.6 474.242 597.387 467.857C596.618 463.843 596.916 456.656 601.416 457.475C605.346 458.168 609.055 462.172 611.636 465.782C616.582 472.745 618.121 482.934 619.28 491.809C619.576 494.083 622.433 494.015 622.138 491.74Z" fill="#E1D4DB"/>
<path d="M778.12 521.471C807.842 521.708 842.877 506.692 852.893 471.238C853.187 470.235 852.386 469.222 851.672 468.82C843.246 464.131 833.448 464.634 824.925 465.282C815.506 466.003 806.788 467.763 798.329 472.168C789.837 476.582 783.183 482.554 777.794 491.588C775.026 496.237 772.659 501.257 770.403 506.361C769.4 508.632 768.407 510.946 767.426 513.234C766.738 514.859 765.636 516.477 765.64 518.42C765.637 519.167 766.226 520.189 766.896 520.355C770.673 521.298 774.353 521.046 778.12 521.471C780.132 521.696 779.944 517.88 777.932 517.655C774.456 517.245 770.988 517.555 767.514 516.737C767.936 517.396 768.348 518.013 768.77 518.672C768.775 517.45 770.496 514.699 771.048 513.449C771.973 511.288 772.898 509.128 773.868 507.001C775.92 502.424 778.083 497.932 780.592 493.734C785.746 485.099 792.353 479.569 800.464 475.412C808.565 471.281 816.98 469.735 825.973 469.101C834.015 468.533 843.153 468.11 851.054 472.505C850.644 471.685 850.244 470.907 849.833 470.087C845.007 487.134 833.389 498.888 820.457 506.418C807.569 513.914 792.827 517.799 777.955 517.672C775.942 517.651 776.129 521.467 778.12 521.471Z" fill="#DDD9DA"/>
<path d="M770.971 518.121C783.971 507.021 798.104 498.002 812.793 490.219C818.847 487.023 824.669 483.344 830.613 479.928C836.59 476.504 842.936 473.187 849.842 472.778C851.801 472.655 851.636 468.854 849.655 468.96C836.089 469.759 824.884 479.557 813.112 485.727C797.717 493.761 782.855 503.082 769.272 514.695C767.734 516.02 769.433 519.447 770.971 518.121Z" fill="#DDD9DA"/>
<path d="M1175.06 151.576C1181.49 141.029 1187.45 128.6 1188.55 116.083C1189.61 104.21 1184.89 94.8667 1176.46 90.2865C1168.79 86.1155 1159.52 85.3877 1150.69 85.7725C1140.83 86.2038 1130.54 88.1751 1120.83 92.4919C1113.96 95.5619 1106.56 99.9923 1102.95 108.353C1099.79 115.651 1100.46 123.656 1102.16 130.513C1104.22 138.876 1107.9 146.383 1111.96 153.304C1115.74 159.813 1119.95 166.459 1124.95 171.627C1131.4 178.28 1140.06 181.42 1149.31 177.451C1159.97 172.879 1167.48 162.169 1175.1 152.316C1176.13 150.991 1174.8 149.121 1173.76 150.458C1167.29 158.833 1161.06 167.886 1152.48 173.09C1145.09 177.586 1137.38 177.626 1130.99 173.295C1125.18 169.331 1120.89 162.739 1116.86 156.503C1112.94 150.419 1109.34 143.922 1106.64 136.816C1104.18 130.387 1102.13 122.899 1103.23 115.184C1104.38 107.211 1109.36 101.649 1115.36 98.0188C1123.65 92.9792 1132.86 90.5294 1141.61 89.2475C1150.66 87.9217 1159.95 87.7717 1168.45 90.0684C1177.92 92.6164 1186.18 99.4135 1186.49 112.136C1186.82 125.299 1180.04 139.198 1173.3 150.259C1172.4 151.754 1174.15 153.053 1175.06 151.576Z" fill="#D3CBCF"/>
<path d="M1175.94 157.161C1177.85 154.575 1180.14 152.147 1182.88 151.284C1185.14 150.573 1187.36 151.091 1189.31 152.083C1193.86 154.409 1197.38 158.788 1201.16 162.364C1203.12 164.232 1205.17 166.016 1207.61 167.072C1207.81 166.217 1208 165.344 1208.19 164.471C1197.3 163.214 1182.95 166.958 1176.58 154.904C1175.88 153.576 1174.12 155.47 1174.81 156.809C1181.55 169.531 1196.41 165.793 1207.88 167.126C1209.17 167.275 1209.51 164.967 1208.47 164.515C1203.81 162.471 1200.31 157.713 1196.53 154.203C1192.88 150.814 1188.34 147.233 1183.04 148.595C1179.73 149.448 1176.87 152.223 1174.57 155.311C1173.58 156.664 1174.91 158.535 1175.94 157.161Z" fill="#D3CBCF"/>
<path d="M1175.73 157.328C1181.17 164.252 1185.24 173.796 1182.93 184.401C1183.54 184.003 1184.16 183.605 1184.78 183.207C1181.02 180.771 1178.55 176.158 1177.04 171.424C1175.53 166.69 1174.74 160.907 1176.49 155.573C1177.04 153.853 1174.92 153.156 1174.36 154.876C1172.43 160.799 1173.16 167.114 1174.78 172.435C1176.41 177.707 1179.19 182.909 1183.38 185.586C1184.16 186.073 1185 185.433 1185.24 184.391C1187.7 173.102 1183.36 162.719 1177.6 155.353C1176.63 154.168 1174.78 156.132 1175.73 157.328Z" fill="#D3CBCF"/>
<path d="M1175.66 155.253C1181.18 140.468 1195.93 133.286 1207.03 138.889C1206.95 138.176 1206.86 137.464 1206.8 136.758C1204.53 139.39 1202.46 142.261 1200.17 144.875C1198.02 147.361 1195.54 149.99 1192.63 150.623C1191.24 150.929 1191.51 153.384 1192.89 153.106C1199.11 151.765 1203.76 143.608 1208.13 138.55C1208.8 137.771 1208.61 136.775 1207.9 136.419C1195.74 130.296 1179.68 138.607 1173.7 154.611C1173.09 156.187 1175.07 156.836 1175.66 155.253Z" fill="#D3CBCF"/>
<path d="M1180.01 114.446C1178.57 113.168 1176.68 112.953 1174.87 112.666C1174.61 112.631 1174.24 112.849 1174.04 113.073C1173.84 113.297 1173.65 113.67 1173.62 114.002C1173.59 114.363 1173.64 114.717 1173.84 114.946C1174.04 115.203 1174.27 115.279 1174.57 115.311C1174.5 115.307 1174.26 115.26 1174.57 115.311C1174.63 115.315 1174.7 115.338 1174.76 115.343C1174.87 115.362 1175 115.371 1175.1 115.39C1175.32 115.429 1175.56 115.457 1175.78 115.514C1176.18 115.596 1176.57 115.677 1176.96 115.787C1177.14 115.829 1177.3 115.9 1177.47 115.971C1177.55 116.012 1177.64 116.042 1177.72 116.083C1177.76 116.099 1177.81 116.114 1177.84 116.14C1178.01 116.229 1177.59 116.009 1177.76 116.099C1178.1 116.288 1178.4 116.5 1178.69 116.74C1179.11 117.121 1179.92 116.838 1180.25 116.218C1180.58 115.569 1180.48 114.842 1180.01 114.446Z" fill="#D3CBCF"/>
<path d="M1170.15 137.727C1169.11 137.565 1168.13 137.18 1167.19 136.727C1167.14 136.693 1167.09 136.678 1167.04 136.644C1167.17 136.719 1167.11 136.685 1167.01 136.637C1166.89 136.58 1166.78 136.513 1166.66 136.457C1166.43 136.333 1166.2 136.192 1165.99 136.057C1165.51 135.774 1165.04 135.472 1164.56 135.17C1164.08 134.867 1163.35 135.002 1162.99 135.694C1162.66 136.298 1162.67 137.178 1163.2 137.513C1165.11 138.703 1167.05 139.956 1169.29 140.314C1169.59 140.365 1169.84 140.364 1170.14 140.17C1170.38 140.008 1170.65 139.674 1170.74 139.364C1170.92 138.725 1170.73 137.821 1170.15 137.727Z" fill="#D3CBCF"/>
<path d="M1154.2 163.232C1153.98 163.24 1153.76 163.249 1153.54 163.257C1153.43 163.256 1153.33 163.255 1153.22 163.236C1153.16 163.231 1153.11 163.216 1153.05 163.212C1153.01 163.215 1152.83 163.173 1153.03 163.204C1153.22 163.236 1153.04 163.193 1153.01 163.196C1152.94 163.192 1152.9 163.177 1152.83 163.173C1152.72 163.153 1152.61 163.115 1152.5 163.096C1152.3 163.046 1152.11 162.967 1151.91 162.888C1151.81 162.839 1151.72 162.809 1151.62 162.76C1151.47 162.678 1151.62 162.76 1151.69 162.783C1151.64 162.75 1151.59 162.734 1151.54 162.701C1151.36 162.593 1151.17 162.466 1150.98 162.34C1150.79 162.213 1150.61 162.058 1150.44 161.92C1150.34 161.824 1150.25 161.746 1150.16 161.65C1150.09 161.58 1149.99 161.418 1150.16 161.669C1150.12 161.606 1150.07 161.572 1150.03 161.51C1149.82 161.281 1149.6 161.128 1149.3 161.143C1149.03 161.137 1148.68 161.297 1148.47 161.551C1148.06 162.047 1147.84 162.963 1148.26 163.439C1149.06 164.3 1149.94 164.994 1150.99 165.449C1151.88 165.839 1152.88 165.986 1153.87 165.905C1154.44 165.868 1155.06 165.326 1155.14 164.574C1155.19 163.879 1154.82 163.191 1154.2 163.232Z" fill="#D3CBCF"/>
<path d="M1162.91 119.371C1161.23 118.661 1159.49 117.947 1157.58 118.093C1157 118.13 1156.39 118.668 1156.32 119.415C1156.25 120.087 1156.63 120.789 1157.25 120.749C1157.7 120.703 1158.13 120.733 1158.58 120.782C1158.62 120.779 1158.66 120.794 1158.71 120.809C1158.42 120.795 1158.6 120.79 1158.66 120.794C1158.77 120.813 1158.88 120.833 1158.99 120.852C1159.2 120.891 1159.41 120.959 1159.61 121.008C1160.45 121.25 1161.24 121.59 1162.03 121.93C1162.54 122.161 1163.29 121.65 1163.48 120.987C1163.71 120.245 1163.46 119.617 1162.91 119.371Z" fill="#D3CBCF"/>
<path d="M1151.93 140.282C1150.31 140.027 1148.79 139.32 1147.29 138.669C1146.77 138.447 1146.03 138.95 1145.85 139.615C1145.63 140.35 1145.88 140.998 1146.43 141.227C1147.92 141.86 1149.44 142.567 1151.07 142.841C1151.37 142.891 1151.62 142.891 1151.91 142.697C1152.16 142.535 1152.42 142.203 1152.52 141.894C1152.62 141.556 1152.64 141.177 1152.52 140.894C1152.42 140.62 1152.21 140.325 1151.93 140.282Z" fill="#D3CBCF"/>
<path d="M1155.28 101.145C1152.43 100.692 1149.67 99.837 1146.81 99.3836C1146.25 99.2975 1145.59 99.5762 1145.37 100.324C1145.17 100.949 1145.36 101.843 1145.95 101.926C1148.81 102.379 1151.57 103.234 1154.43 103.687C1154.98 103.773 1155.65 103.495 1155.86 102.747C1156.05 102.133 1155.86 101.239 1155.28 101.145Z" fill="#D3CBCF"/>
<path d="M1144.03 122.217C1142.55 122.001 1140.99 122.163 1139.5 121.947C1139.25 121.911 1138.88 122.127 1138.68 122.348C1138.48 122.57 1138.29 122.939 1138.27 123.267C1138.24 123.624 1138.29 123.974 1138.49 124.2C1138.68 124.455 1138.91 124.53 1139.21 124.562C1140.7 124.778 1142.25 124.616 1143.74 124.832C1143.99 124.868 1144.36 124.652 1144.56 124.431C1144.76 124.209 1144.95 123.84 1144.97 123.512C1145 123.155 1144.95 122.805 1144.75 122.579C1144.54 122.335 1144.33 122.249 1144.03 122.217Z" fill="#D3CBCF"/>
<path d="M1135.55 150.385C1133.65 149.196 1131.65 148.216 1129.87 146.818C1129.41 146.455 1128.64 146.708 1128.3 147.345C1127.94 148.011 1128 148.796 1128.51 149.174C1130.31 150.561 1132.29 151.553 1134.18 152.742C1134.66 153.046 1135.39 152.911 1135.76 152.215C1136.07 151.6 1136.06 150.715 1135.55 150.385Z" fill="#D3CBCF"/>
<path d="M1135.11 109.083C1133.16 108.781 1131.33 108.056 1129.37 107.736C1129.07 107.685 1128.83 107.686 1128.53 107.879C1128.29 108.039 1128.02 108.37 1127.93 108.678C1127.74 109.304 1127.92 110.199 1128.52 110.283C1130.47 110.584 1132.29 111.31 1134.25 111.63C1134.56 111.681 1134.8 111.68 1135.09 111.487C1135.34 111.326 1135.61 110.995 1135.7 110.688C1135.88 110.072 1135.69 109.177 1135.11 109.083Z" fill="#D3CBCF"/>
<path d="M1128.76 132.044C1126.93 131.249 1125.08 130.501 1123.19 129.833C1122.66 129.659 1121.94 130.085 1121.74 130.781C1121.53 131.488 1121.76 132.196 1122.33 132.396C1124.21 133.046 1126.06 133.812 1127.9 134.608C1128.43 134.829 1129.16 134.326 1129.35 133.659C1129.57 132.923 1129.32 132.274 1128.76 132.044Z" fill="#D3CBCF"/>
<path d="M1117.31 111.239C1115.67 110.54 1114.05 109.848 1112.42 109.139C1111.89 108.917 1111.16 109.421 1110.97 110.088C1110.75 110.825 1111.01 111.475 1111.56 111.705C1113.18 112.414 1114.82 113.095 1116.44 113.805C1116.97 114.027 1117.71 113.523 1117.9 112.855C1118.12 112.137 1117.87 111.486 1117.31 111.239Z" fill="#D3CBCF"/>
<path d="M1123.17 98.0251C1122.72 98.0708 1122.29 98.0404 1121.84 97.9918C1121.8 97.995 1121.76 97.9799 1121.71 97.9648C1122 97.979 1121.82 97.9842 1121.76 97.9799C1121.65 97.9605 1121.54 97.9411 1121.43 97.9217C1121.22 97.8829 1121.01 97.8151 1120.81 97.7656C1119.97 97.5235 1119.18 97.1838 1118.39 96.8441C1117.86 96.6237 1117.13 97.1241 1116.94 97.7869C1116.72 98.5184 1116.98 99.1645 1117.53 99.3924C1119.2 100.102 1120.94 100.816 1122.86 100.67C1123.43 100.633 1124.05 100.095 1124.12 99.3477C1124.16 98.6686 1123.78 97.9666 1123.17 98.0251Z" fill="#D3CBCF"/>
<path d="M1116.45 131.231C1115.86 131.136 1115.29 130.965 1114.76 130.677C1114.83 130.718 1114.92 130.748 1115.01 130.808C1114.35 130.463 1113.75 129.99 1113.19 129.467C1113 129.292 1112.64 129.255 1112.38 129.333C1112.11 129.422 1111.79 129.675 1111.63 129.963C1111.48 130.269 1111.36 130.62 1111.4 130.958C1111.45 131.314 1111.6 131.558 1111.82 131.777C1112.92 132.768 1114.14 133.56 1115.58 133.785C1115.88 133.836 1116.13 133.835 1116.43 133.641C1116.67 133.478 1116.94 133.144 1117.03 132.833C1117.13 132.493 1117.16 132.112 1117.04 131.828C1116.94 131.57 1116.73 131.275 1116.45 131.231Z" fill="#D3CBCF"/>
<path d="M1141.84 168.514C1140.01 167.718 1138.27 166.65 1136.27 166.302C1135.97 166.251 1135.72 166.252 1135.43 166.446C1135.18 166.608 1134.91 166.941 1134.82 167.251C1134.62 167.881 1134.81 168.782 1135.41 168.865C1137.42 169.184 1139.14 170.281 1140.98 171.077C1141.49 171.309 1142.24 170.795 1142.43 170.128C1142.67 169.382 1142.4 168.761 1141.84 168.514Z" fill="#D3CBCF"/>
<path d="M1169.89 98.4549C1168.63 97.6519 1167.19 97.0699 1165.7 96.823C1165.39 96.7721 1165.15 96.773 1164.85 96.9669C1164.61 97.1284 1164.34 97.4613 1164.25 97.7706C1164.15 98.109 1164.12 98.4884 1164.25 98.7709C1164.36 99.0351 1164.57 99.3295 1164.83 99.3836C1166 99.572 1167.11 99.9824 1168.14 100.531C1168.07 100.49 1167.97 100.459 1167.89 100.4C1168.11 100.505 1168.32 100.62 1168.53 100.754C1168.77 100.914 1169.04 100.968 1169.33 100.887C1169.61 100.799 1169.92 100.547 1170.08 100.261C1170.41 99.6582 1170.4 98.7818 1169.89 98.4549Z" fill="#D3CBCF"/>
<path d="M1176.82 155.557C1180.16 156.568 1183.55 157.499 1186.76 158.888C1187.28 159.109 1187.99 158.6 1188.2 157.942C1188.45 157.216 1188.15 156.552 1187.62 156.331C1184.39 154.953 1181.02 154.029 1177.66 153.01C1177.12 152.847 1176.45 153.259 1176.22 153.956C1176 154.643 1176.26 155.404 1176.82 155.557Z" fill="#D3CBCF"/>
</g>
</svg>
