<svg width="20" height="20" viewBox="0 0 20 20" fill="none" xmlns="http://www.w3.org/2000/svg">
<path d="M13.6585 2.26307C14.7231 2.26613 15.7431 2.67471 16.4958 3.39958C17.2486 4.12445 17.6729 5.1067 17.6761 6.13181V13.8685C17.6729 14.8936 17.2486 15.8758 16.4958 16.6007C15.7431 17.3256 14.7231 17.7342 13.6585 17.7372H5.6243C4.55976 17.7342 3.53973 17.3256 2.78698 16.6007C2.03423 15.8758 1.60994 14.8936 1.60676 13.8685V6.13181C1.60994 5.1067 2.03423 4.12445 2.78698 3.39958C3.53973 2.67471 4.55976 2.26613 5.6243 2.26307H13.6585ZM13.6585 0.71582H5.6243C2.53087 0.71582 0 3.15296 0 6.13181V13.8685C0 16.8473 2.53087 19.2845 5.6243 19.2845H13.6585C16.752 19.2845 19.2828 16.8473 19.2828 13.8685V6.13181C19.2828 3.15296 16.752 0.71582 13.6585 0.71582Z" fill="#274C5B"/>
<path d="M14.8633 6.1326C14.6249 6.1326 14.3919 6.06454 14.1937 5.93702C13.9956 5.8095 13.8411 5.62824 13.7499 5.41618C13.6587 5.20412 13.6348 4.97078 13.6813 4.74565C13.7278 4.52053 13.8426 4.31374 14.0111 4.15144C14.1797 3.98913 14.3944 3.8786 14.6282 3.83382C14.862 3.78904 15.1043 3.81203 15.3245 3.89986C15.5447 3.9877 15.7329 4.13645 15.8654 4.3273C15.9978 4.51815 16.0685 4.74253 16.0685 4.97206C16.0688 5.12456 16.0379 5.27562 15.9774 5.41657C15.917 5.55752 15.8282 5.68559 15.7163 5.79342C15.6043 5.90125 15.4713 5.98673 15.3249 6.04493C15.1785 6.10314 15.0217 6.13293 14.8633 6.1326ZM9.64102 6.90602C10.2767 6.90602 10.8981 7.08754 11.4266 7.42761C11.9551 7.76768 12.3671 8.25104 12.6103 8.81656C12.8536 9.38209 12.9172 10.0044 12.7932 10.6047C12.6692 11.2051 12.3631 11.7565 11.9136 12.1894C11.4641 12.6222 10.8915 12.917 10.268 13.0364C9.64458 13.1558 8.99837 13.0945 8.4111 12.8603C7.82382 12.626 7.32187 12.2293 6.96872 11.7204C6.61557 11.2114 6.42707 10.6131 6.42707 10.0009C6.42798 9.18038 6.76689 8.39369 7.36942 7.81347C7.97196 7.23325 8.78891 6.9069 9.64102 6.90602ZM9.64102 5.35877C8.68757 5.35877 7.75554 5.63103 6.96278 6.14112C6.17002 6.65121 5.55214 7.37621 5.18727 8.22446C4.8224 9.0727 4.72694 10.0061 4.91294 10.9066C5.09895 11.8071 5.55808 12.6342 6.23227 13.2834C6.90645 13.9327 7.76542 14.3748 8.70055 14.5539C9.63567 14.733 10.605 14.6411 11.4858 14.2897C12.3667 13.9384 13.1196 13.3434 13.6493 12.58C14.179 11.8166 14.4617 10.9191 14.4617 10.0009C14.4617 8.76976 13.9538 7.58901 13.0498 6.71843C12.1457 5.84786 10.9196 5.35877 9.64102 5.35877Z" fill="#274C5B"/>
</svg>
